<svg xmlns="http://www.w3.org/2000/svg" shape-rendering="geometricPrecision" text-rendering="geometricPrecision" image-rendering="optimizeQuality" fill-rule="evenodd" clip-rule="evenodd" viewBox="0 0 512 329.8"><path fill-rule="nonzero" d="M299.2 165c0 11.86-2.31 21.84-6.93 29.99-2.54 4.46-5.54 8.33-9.04 11.59l16.17 19.58h-25.58l-8.02-9.35c-5.71 1.93-11.85 2.9-18.41 2.9-9.69 0-18.45-2.12-26.28-6.32-7.81-4.21-14.01-10.39-18.6-18.52-4.61-8.13-6.9-18.09-6.9-29.87 0-11.86 2.29-21.84 6.9-29.97 4.59-8.13 10.79-14.27 18.6-18.48 7.83-4.17 16.59-6.25 26.28-6.25 9.65 0 18.38 2.08 26.21 6.25 7.84 4.21 14.06 10.35 18.67 18.48 4.62 8.13 6.93 18.11 6.93 29.97zM84.74 218.25V111.74h28.91v41.62h38.28v-41.62h28.91v106.51h-28.91v-41.61h-38.28v41.61H84.74zm299.4-151.54L493.43 18.3c6.68-2.94 14.49.1 17.43 6.78.77 1.73 1.13 3.55 1.13 5.33l.01 268.98c0 7.31-5.93 13.25-13.24 13.25-2.29 0-4.43-.57-6.3-1.6l-108.32-50.06v5.05c0 17.33-7.28 33.29-18.87 44.9l-.09.08c-11.55 11.53-27.44 18.79-44.67 18.79H63.64c-17.28 0-33.21-7.2-44.8-18.77C7.23 299.4 0 283.49 0 266.03V63.77c0-17.53 7.18-33.49 18.73-45.05C30.28 7.18 46.18 0 63.64 0h256.87c17.41 0 33.29 7.25 44.81 18.77 11.6 11.6 18.82 27.62 18.82 45v2.94zm.93 28.52v137.06l100.44 46.42V50.75L385.07 95.23zm-64.56-68.74H63.64a37.36 37.36 0 0 0-26.47 10.96c-6.75 6.75-10.95 16.08-10.95 26.32v202.26c0 10.18 4.22 19.45 10.95 26.17 6.86 6.86 16.28 11.1 26.47 11.1h256.87c10.14 0 19.52-4.29 26.32-11.1 6.83-6.82 11.09-16.12 11.09-26.17V63.77c0-10.11-4.24-19.46-11.04-26.26-6.76-6.76-16.1-11.02-26.37-11.02zm-83.3 152.25h22.46l5.23 6.56c.77-1.26 1.44-2.65 2.01-4.15 1.69-4.39 2.55-9.76 2.55-16.15 0-6.38-.86-11.77-2.55-16.14-1.65-4.39-4.15-7.7-7.41-10-3.28-2.27-7.32-3.39-12.11-3.39-4.78 0-8.81 1.12-12.08 3.39-3.27 2.3-5.75 5.61-7.44 10-1.68 4.37-2.52 9.76-2.52 16.14 0 6.39.84 11.76 2.52 16.15 1.69 4.37 4.17 7.72 7.44 9.98 3.27 2.28 7.3 3.4 12.08 3.4l1.71-.05-11.89-15.74z"/></svg>