<svg xmlns="http://www.w3.org/2000/svg" shape-rendering="geometricPrecision" text-rendering="geometricPrecision" image-rendering="optimizeQuality" fill-rule="evenodd" clip-rule="evenodd" viewBox="0 0 512 329.79"><path fill-rule="nonzero" d="M63.64 0h256.87c17.41 0 33.28 7.24 44.81 18.77 11.6 11.6 18.82 27.62 18.82 45v2.94L493.42 18.3c6.69-2.94 14.5.1 17.44 6.78.76 1.73 1.13 3.55 1.13 5.33l.01 268.98c0 7.31-5.94 13.25-13.25 13.25-2.28 0-4.42-.58-6.3-1.6l-108.31-50.06v5.05c0 17.33-7.28 33.29-18.88 44.9l-.08.08c-11.55 11.52-27.46 18.78-44.67 18.78H63.64c-17.28 0-33.21-7.19-44.8-18.76C7.23 299.4 0 283.49 0 266.03V63.77c0-17.53 7.18-33.49 18.73-45.05C30.28 7.18 46.18 0 63.64 0zm25.77 218.15V111.64h28.91v41.61h38.28v-41.61h28.91v106.51H156.6v-41.62h-38.28v41.62H89.41zm152.25 0H200.7V111.64h40.56c10.95 0 20.42 2.13 28.43 6.37 7.98 4.25 14.15 10.35 18.49 18.31 4.35 7.95 6.55 17.5 6.55 28.57 0 11.11-2.18 20.62-6.52 28.58-4.32 7.96-10.47 14.06-18.41 18.3-7.92 4.25-17.32 6.38-28.14 6.38zm-12.05-24.56h11.03c5.28 0 9.76-.83 13.5-2.53 3.71-1.71 6.57-4.64 8.52-8.79 1.95-4.17 2.93-9.96 2.93-17.38 0-7.41-.98-13.2-2.98-17.35-2.01-4.17-4.91-7.1-8.74-8.81-3.83-1.68-8.51-2.54-14.05-2.54h-10.21v57.4zm155.46-98.36v137.06l100.44 46.42V50.75L385.07 95.23zm-64.56-68.74H63.64a37.36 37.36 0 0 0-26.47 10.96c-6.75 6.75-10.95 16.08-10.95 26.32v202.26c0 10.18 4.22 19.45 10.95 26.17 6.86 6.86 16.28 11.1 26.47 11.1h256.87c10.14 0 19.52-4.29 26.32-11.1 6.83-6.82 11.09-16.12 11.09-26.17V63.77c0-10.11-4.24-19.46-11.04-26.26-6.76-6.76-16.11-11.02-26.37-11.02z"/></svg>