<svg xmlns="http://www.w3.org/2000/svg" shape-rendering="geometricPrecision" text-rendering="geometricPrecision" image-rendering="optimizeQuality" fill-rule="evenodd" clip-rule="evenodd" viewBox="0 0 512 329.8" width="40" height="40"><path stroke="#F1F1F1" stroke-width="10" fill-rule="nonzero" d="M63.64 0h256.87c17.41 0 33.29 7.25 44.81 18.77 11.6 11.6 18.82 27.62 18.82 45v2.94L493.43 18.3c6.68-2.94 14.49.1 17.43 6.78.77 1.73 1.13 3.55 1.13 5.33l.01 268.98c0 7.31-5.93 13.25-13.24 13.25-2.29 0-4.43-.57-6.3-1.6l-108.32-50.06v5.05c0 17.33-7.28 33.29-18.87 44.9l-.09.08c-11.55 11.53-27.44 18.79-44.67 18.79H63.64c-17.28 0-33.21-7.2-44.8-18.77C7.23 299.4 0 283.49 0 266.03V63.77c0-17.53 7.18-33.49 18.73-45.05C30.28 7.18 46.18 0 63.64 0zm89.24 144.93c-.3-3.46-1.6-6.17-3.89-8.1-2.32-1.95-5.8-2.93-10.49-2.93-2.98 0-5.4.36-7.3 1.07-1.88.71-3.29 1.69-4.18 2.88-.89 1.22-1.36 2.62-1.41 4.18-.07 1.26.17 2.41.71 3.43.54 1.03 1.39 1.96 2.56 2.77 1.2.82 2.69 1.56 4.55 2.22 1.82.65 3.99 1.24 6.54 1.75l8.73 1.89c5.91 1.24 10.94 2.9 15.13 4.92 4.2 2.06 7.64 4.46 10.3 7.23 2.66 2.73 4.63 5.83 5.91 9.27 1.27 3.42 1.89 7.18 1.95 11.22-.06 7.01-1.79 12.95-5.27 17.8-3.47 4.86-8.4 8.54-14.84 11.08-6.42 2.52-14.15 3.78-23.17 3.78-9.25 0-17.32-1.37-24.2-4.1-6.89-2.73-12.23-6.96-16.01-12.66-3.81-5.72-5.72-13.01-5.76-21.93h27.45c.2 3.26 1 6.01 2.47 8.23 1.44 2.2 3.49 3.88 6.15 5.03 2.66 1.15 5.81 1.73 9.5 1.73 3.06 0 5.65-.38 7.73-1.15 2.1-.78 3.66-1.82 4.73-3.17 1.08-1.36 1.64-2.9 1.66-4.64-.02-1.62-.55-3.04-1.59-4.28-1-1.22-2.68-2.35-4.99-3.33-2.33-1-5.48-1.93-9.43-2.77l-10.59-2.3c-9.45-2.05-16.86-5.48-22.28-10.28-5.44-4.78-8.13-11.35-8.1-19.67-.03-6.76 1.78-12.69 5.44-17.77 3.66-5.07 8.74-9.03 15.23-11.89 6.51-2.82 13.96-4.24 22.38-4.24 8.61 0 16.04 1.44 22.33 4.32 6.27 2.86 11.1 6.91 14.52 12.13 3.41 5.22 5.15 11.3 5.18 18.28h-27.65zm85.46 73.22h-40.97V111.64h40.56c10.95 0 20.42 2.13 28.43 6.37 7.98 4.25 14.16 10.35 18.49 18.31 4.35 7.95 6.55 17.5 6.55 28.57 0 11.11-2.18 20.62-6.51 28.58-4.32 7.96-10.48 14.06-18.41 18.3-7.93 4.25-17.33 6.38-28.14 6.38zm-12.06-24.55h11.04c5.27 0 9.76-.84 13.49-2.54 3.71-1.71 6.57-4.64 8.52-8.79 1.95-4.17 2.93-9.96 2.93-17.38 0-7.41-.98-13.2-2.98-17.35-2-4.17-4.9-7.1-8.74-8.8-3.83-1.69-8.51-2.55-14.05-2.55h-10.21v57.41zm158.79-98.37v137.06l100.44 46.42V50.75L385.07 95.23zm-64.56-68.74H63.64a37.36 37.36 0 0 0-26.47 10.96c-6.75 6.75-10.95 16.08-10.95 26.32v202.26c0 10.18 4.22 19.45 10.95 26.17 6.86 6.86 16.28 11.1 26.47 11.1h256.87c10.14 0 19.52-4.29 26.32-11.1 6.83-6.82 11.09-16.12 11.09-26.17V63.77c0-10.11-4.24-19.46-11.04-26.26-6.76-6.76-16.1-11.02-26.37-11.02z"/></svg>