<svg width="1920" height="1080" viewBox="0 0 1920 1080" fill="none" xmlns="http://www.w3.org/2000/svg">
<rect width="1920" height="1080" fill="#050F20"/>
<path d="M843.762 935H863.066V930.744H848.436V907.336H843.762V935ZM880.918 935.456C889.392 935.456 895.396 928.92 895.396 921.168V921.092C895.396 913.34 889.468 906.88 880.994 906.88C872.52 906.88 866.516 913.416 866.516 921.168V921.244C866.516 928.996 872.444 935.456 880.918 935.456ZM880.994 931.162C875.408 931.162 871.418 926.64 871.418 921.168V921.092C871.418 915.62 875.332 911.174 880.918 911.174C886.504 911.174 890.494 915.696 890.494 921.168V921.244C890.494 926.716 886.58 931.162 880.994 931.162ZM907.936 924.094L912.876 912.694L917.816 924.094H907.936ZM898.55 935H903.338L906.226 928.274H919.526L922.414 935H927.316L915.118 907.146H910.786L898.55 935ZM933.487 935H943.709C952.411 935 958.415 928.958 958.415 921.168V921.092C958.415 913.302 952.411 907.336 943.709 907.336H933.487V935ZM943.709 911.554C949.637 911.554 953.513 915.696 953.513 921.168V921.244C953.513 926.754 949.637 930.782 943.709 930.782H938.161V911.554H943.709ZM965.962 935H970.636V907.336H965.962V935ZM979.424 935H984.022V914.974L999.526 935H1003.44V907.336H998.842V926.83L983.718 907.336H979.424V935ZM1025.04 935.456C1029.9 935.456 1033.82 933.518 1036.55 931.162V919.61H1024.81V923.714H1032.03V929.072C1030.32 930.364 1027.89 931.238 1025.19 931.238C1019.45 931.238 1015.62 926.944 1015.62 921.168V921.092C1015.62 915.696 1019.53 911.174 1024.77 911.174C1028.31 911.174 1030.44 912.314 1032.6 914.138L1035.57 910.604C1032.72 908.21 1029.75 906.88 1024.93 906.88C1016.6 906.88 1010.71 913.454 1010.71 921.168V921.244C1010.71 929.3 1016.38 935.456 1025.04 935.456ZM1043.79 935H1049.19V929.49H1043.79V935ZM1056.78 935H1062.18V929.49H1056.78V935ZM1069.77 935H1075.16V929.49H1069.77V935Z" fill="#F1F1F1"/>
<g clip-path="url(#clip0_803_14646)">
<path d="M957.571 460H952.3V620H957.571V460Z" fill="white"/>
<path d="M1012.71 553.136L1016.48 548.654C1020.04 551.803 1023.66 553.493 1028.3 553.493C1032.42 553.493 1035.08 551.562 1035.08 548.654V548.549C1035.08 545.851 1033.54 544.351 1026.56 542.745C1018.57 540.866 1014.18 538.473 1014.18 531.702V531.597C1014.18 525.299 1019.43 520.953 1026.78 520.953C1031.68 520.82 1036.46 522.465 1040.23 525.583L1036.82 530.317C1033.96 527.943 1030.39 526.6 1026.68 526.506C1022.75 526.506 1020.38 528.49 1020.38 531.041V531.135C1020.38 534.095 1022.11 535.47 1029.4 537.15C1037.29 539.029 1041.27 541.884 1041.27 547.941V548.045C1041.27 554.921 1035.82 559.046 1028.13 559.046C1022.43 559.09 1016.92 556.979 1012.71 553.136Z" fill="white"/>
<path d="M1061.38 527.22H1049.51V521.447H1079.47V527.21H1067.68V558.532H1061.38V527.22Z" fill="white"/>
<path d="M1090.33 521.447H1106.78C1111.42 521.447 1115.09 522.822 1117.48 525.163C1118.48 526.225 1119.26 527.473 1119.77 528.837C1120.29 530.2 1120.53 531.652 1120.48 533.109V533.214C1120.48 539.27 1116.82 542.944 1111.52 544.372L1121.71 558.532H1114.27L1104.99 545.442H1096.59V558.532H1090.29L1090.33 521.447ZM1106.32 539.89C1111.06 539.89 1114.17 537.392 1114.17 533.518V533.424C1114.17 529.393 1111.21 527.126 1106.28 527.126H1096.59V539.911L1106.32 539.89Z" fill="white"/>
<path d="M1132.53 521.447H1159.93V527.052H1138.73V537.035H1157.54V542.64H1138.73V552.927H1160.19V558.532H1132.53V521.447Z" fill="white"/>
<path d="M1185.11 521.206H1190.92L1207.27 558.542H1200.7L1196.83 549.526H1178.98L1175.1 558.542H1168.69L1185.11 521.206ZM1194.56 543.921L1187.93 528.637L1181.31 543.921H1194.56Z" fill="white"/>
<path d="M1217.68 521.447H1224.3L1235.85 539.291L1247.4 521.447H1254.01V558.532H1247.79V531.534L1235.88 549.305H1235.67L1223.8 531.639V558.532H1217.69L1217.68 521.447Z" fill="white"/>
<path d="M674.622 483.145H685.122L695.811 497.462H700.914L689.595 482.41C695.391 481.36 699.601 477.781 699.601 471.682V471.578C699.63 470.239 699.394 468.908 698.905 467.661C698.417 466.414 697.686 465.277 696.756 464.314C694.446 461.994 690.813 460.63 686.256 460.63H670.411V497.462H674.611L674.622 483.145ZM674.622 464.472H685.993C691.936 464.472 695.443 467.211 695.443 471.735V471.84C695.443 476.574 691.495 479.418 685.993 479.418H674.685L674.622 464.472Z" fill="white"/>
<path d="M735.113 498.092C746.317 498.092 753.95 489.202 753.95 479.041C754.003 478.988 754.003 478.988 753.95 478.936C753.95 468.786 746.422 460.042 735.218 460.042C724.015 460.042 716.371 468.933 716.371 479.083V479.188C716.371 489.307 723.899 498.092 735.113 498.092ZM720.686 478.936C720.686 470.539 726.692 463.842 735.113 463.842C743.534 463.842 749.635 470.686 749.635 479.041V479.146C749.635 487.543 743.639 494.25 735.218 494.25C726.797 494.25 720.686 487.417 720.686 479.041V478.936Z" fill="white"/>
<path d="M782.568 497.462H786.779V482.84L802.109 460.63H797.258L784.731 479.051L772.31 460.63H767.259L782.568 482.893V497.462Z" fill="white"/>
<path d="M829.392 460.367L812.592 497.462H816.865L821.223 487.732H841.288L845.593 497.462H850.077L833.277 460.367H829.392ZM822.861 483.985L831.261 465.206L839.661 483.985H822.861Z" fill="white"/>
<path d="M893.983 493.621H873.246V460.63H869.088V497.462H893.983V493.621Z" fill="white"/>
<path d="M695.872 598.901H674.599V582.537H670.441V619.37H674.599V602.796H695.872V619.37H700.03V582.537H695.872V598.901Z" fill="white"/>
<path d="M736.003 581.908C724.789 581.908 717.165 590.799 717.165 600.949V601.054C717.165 611.214 724.694 620 735.897 620C747.101 620 754.745 611.11 754.745 600.949C754.797 600.896 754.797 600.896 754.745 600.844C754.776 590.725 747.217 581.908 736.003 581.908ZM750.43 601.054C750.43 609.451 744.424 616.158 736.003 616.158C727.582 616.158 721.481 609.325 721.481 600.949V600.844C721.481 592.447 727.476 585.749 735.897 585.749C744.318 585.749 750.43 592.594 750.43 600.949V601.054Z" fill="white"/>
<path d="M798.877 603.951C798.877 612.002 794.572 616.106 787.779 616.106C780.723 616.106 776.512 611.634 776.512 603.688V582.538H772.312V603.951C772.312 614.374 778.528 619.947 787.632 619.947C796.735 619.947 802.993 614.373 802.993 603.635V582.538H798.793L798.877 603.951Z" fill="white"/>
<path d="M836.434 598.954C828.328 597.222 826.438 595.27 826.438 591.796V591.691C826.438 588.374 829.483 585.749 834.281 585.749C838.191 585.755 841.966 587.175 844.908 589.749L847.333 586.537C843.718 583.485 839.105 581.875 834.376 582.013C827.383 582.013 822.28 586.274 822.28 592.058V592.163C822.28 598.22 826.176 600.959 834.649 602.796C842.388 604.423 844.225 606.375 844.225 609.797V609.902C844.225 613.534 840.96 616.2 836.014 616.2C831.069 616.2 827.226 614.468 823.414 610.952L820.831 614.007C824.895 617.849 830.295 619.961 835.888 619.895C843.238 619.895 848.488 615.791 848.488 609.483V609.377C848.436 603.741 844.645 600.739 836.434 598.954Z" fill="white"/>
<path d="M871.765 602.691H891.873V598.901H871.765V586.327H894.246V582.537H867.607V619.37H894.508V615.581H871.765V602.691Z" fill="white"/>
<path d="M684.849 520.953C673.635 520.953 665.949 529.845 665.949 540.005V540.1C665.949 550.26 673.477 558.993 684.691 558.993C695.905 558.993 703.539 550.103 703.539 539.952C703.591 539.89 703.591 539.89 703.539 539.837C703.591 529.739 696.063 520.953 684.849 520.953ZM699.276 540.1C699.276 548.497 693.27 555.204 684.849 555.204C676.428 555.204 670.317 548.361 670.317 540.005V539.889C670.317 531.492 676.323 524.795 684.744 524.795C693.165 524.795 699.276 531.629 699.276 540.005V540.1Z" fill="white"/>
<path d="M736.341 521.583H722.554V558.416H726.754V545.421H735.7C743.544 545.421 750.18 541.317 750.18 533.371V533.266C750.138 526.002 744.667 521.583 736.341 521.583ZM745.927 533.529C745.927 538.367 741.927 541.632 735.816 541.632H726.712V525.425H736.026C741.979 525.425 745.927 528.165 745.927 533.424V533.529Z" fill="white"/>
<path d="M794.219 554.627H771.476V541.737H791.583V537.948H771.476V525.373H793.956V521.584H767.318V558.417H794.219V554.627Z" fill="white"/>
<path d="M840.405 558.416H845.518L834.199 543.364C839.985 542.314 844.195 538.735 844.195 532.637V532.521C844.223 531.184 843.986 529.855 843.497 528.61C843.009 527.365 842.279 526.23 841.35 525.268C839.04 522.948 835.407 521.583 830.85 521.583H815.005V558.416H819.205V544.099H829.705L840.405 558.416ZM819.195 525.425H830.566C836.509 525.425 840.016 528.155 840.016 532.679V532.794C840.016 537.528 836.068 540.372 830.566 540.372H819.247L819.195 525.425Z" fill="white"/>
<path d="M890.168 548.738L894.483 558.469H898.956L882.156 521.374H878.261L861.461 558.469H865.724L870.092 548.738H890.168ZM880.161 526.213L888.561 545.002H871.761L880.161 526.213Z" fill="white"/>
</g>
<defs>
<clipPath id="clip0_803_14646">
<rect width="588" height="160" fill="white" transform="translate(666 460)"/>
</clipPath>
</defs>
</svg>
