<svg width="1920" height="1080" viewBox="0 0 1920 1080" fill="none" xmlns="http://www.w3.org/2000/svg">
<rect width="1920" height="1080" fill="#000000"/>
<g transform="translate(652, 392)">
    <path d="M192.762 288V260.336H197.436V283.744H212.066V288H192.762ZM229.918 288.456C221.444 288.456 215.516 281.996 215.516 274.244V274.168C215.516 266.416 221.52 259.88 229.994 259.88C238.468 259.88 244.396 266.34 244.396 274.092V274.168C244.396 281.92 238.392 288.456 229.918 288.456ZM229.994 284.162C235.58 284.162 239.494 279.716 239.494 274.244V274.168C239.494 268.696 235.504 264.174 229.918 264.174C224.332 264.174 220.418 268.62 220.418 274.092V274.168C220.418 279.64 224.408 284.162 229.994 284.162ZM256.936 277.094H266.816L261.876 265.694L256.936 277.094ZM247.55 288L259.786 260.146H264.118L276.316 288H271.414L268.526 281.274H255.226L252.338 288H247.55ZM282.487 288V260.336H292.709C301.411 260.336 307.415 266.302 307.415 274.092V274.168C307.415 281.958 301.411 288 292.709 288H282.487ZM292.709 264.554H287.161V283.782H292.709C298.637 283.782 302.513 279.754 302.513 274.244V274.168C302.513 268.696 298.637 264.554 292.709 264.554ZM314.962 288V260.336H319.636V288H314.962ZM328.424 288V260.336H332.718L347.842 279.83V260.336H352.44V288H348.526L333.022 267.974V288H328.424ZM374.039 288.456C365.375 288.456 359.713 282.3 359.713 274.244V274.168C359.713 266.454 365.603 259.88 373.925 259.88C378.751 259.88 381.715 261.21 384.565 263.604L381.601 267.138C379.435 265.314 377.307 264.174 373.773 264.174C368.529 264.174 364.615 268.696 364.615 274.092V274.168C364.615 279.944 368.453 284.238 374.191 284.238C376.889 284.238 379.321 283.364 381.031 282.072V276.714H373.811V272.61H385.553V284.162C382.817 286.518 378.903 288.456 374.039 288.456ZM392.794 288V282.49H398.19V288H392.794ZM405.781 288V282.49H411.177V288H405.781ZM418.767 288V282.49H424.163V288H418.767Z" fill="#F1F1F1"/>
    <path d="M286.549 0.963623V45.679H309.54V36.352H296.96V0.963623H286.549Z" fill="#F1F1F1"/>
    <path d="M260.44 0.963623V45.679H283.424V36.352H270.844V0.963623H260.44Z" fill="#F1F1F1"/>
    <path d="M230.942 36.7345H245.052L247.794 45.679H258.647L243.449 0.963623H232.531L217.333 45.679H228.185L230.928 36.7345H230.942ZM237.964 13.6743L242.243 27.5398H233.685L237.964 13.6743Z" fill="#F1F1F1"/>
    <path d="M217.024 11.9531C217.024 5.0534 212.171 0.963623 203.355 0.963623H186.371V45.679H203.164C212.87 45.679 218.296 40.4417 218.296 32.4608C218.296 27.0911 214.722 22.8174 208.399 22.1113C214.208 21.2801 217.024 16.6166 217.024 11.9604V11.9531ZM196.782 9.07697H200.804C204.826 9.07697 206.421 11.0557 206.421 13.8655C206.421 16.6754 204.826 18.6541 200.738 18.6541H196.782V9.06963V9.07697ZM201.569 37.242H196.782V26.51H201.503C205.142 26.51 207.701 28.4887 207.701 31.8723C207.701 35.2559 205.208 37.2346 201.569 37.2346V37.242Z" fill="#F1F1F1"/>
    <path d="M479.692 23.3176C479.692 9.967 469.479 0 455.752 0C442.025 0 431.812 9.95964 431.812 23.3176C431.812 36.6756 442.091 46.6352 455.752 46.6352C469.413 46.6352 479.692 36.6682 479.692 23.3176ZM442.466 23.3176C442.466 15.5279 448.209 9.65069 455.745 9.65069C463.281 9.65069 469.024 15.5279 469.024 23.3176C469.024 31.1073 463.34 36.9845 455.745 36.9845C448.15 36.9845 442.466 31.1073 442.466 23.3176Z" fill="#F1F1F1"/>
    <path d="M378.367 30.9234C378.367 39.9268 385.264 46.6352 394.903 46.6352C400.204 46.6352 404.608 44.5903 408.314 41.2067L411.887 45.679H424.975L415.144 33.4758L422.357 22.9351L414.38 17.4404L408.762 25.62L396.373 10.2907H410.292V0.963623H383.352V10.2907L388.264 16.3591C381.69 19.5515 378.367 24.7888 378.367 30.9234ZM394.072 23.5751L402.373 33.9246C400.711 35.6458 398.542 36.9919 395.734 36.9919C391.587 36.9919 388.962 34.0496 388.962 30.5409C388.962 27.4074 391.072 24.7961 394.072 23.5824V23.5751Z" fill="#F1F1F1"/>
    <path d="M359.214 45.679V10.2907H369.235V0.963623H338.781V10.2907H348.803V45.679H359.214Z" fill="#F1F1F1"/>
    <path d="M335.965 10.2907V0.963623H312.349V45.679H335.965V36.352H322.752V27.7899H333.347V18.4629H322.752V10.2907H335.965Z" fill="#F1F1F1"/>
    <path d="M97.6265 15.778L88.8182 0.963623H77.0027L92.3915 26.4512V45.679H102.795V26.3188L118.118 0.963623H106.369L97.6265 15.778Z" fill="#F1F1F1"/>
    <path d="M149.344 0.963623V45.679H172.328V36.352H159.748V0.963623H149.344Z" fill="#F1F1F1"/>
    <path d="M540.924 10.2907V0.963623H517.3V45.679H540.924V36.352H527.704V27.7899H538.306V18.4629H527.704V10.2907H540.924Z" fill="#F1F1F1"/>
    <path d="M40.6079 44.4652C33.7112 40.1254 28.0939 34.0496 24.3882 27.5398C29.2409 25.3036 32.1819 20.7063 32.1819 15.0204C32.1819 6.90701 26.1161 0.970947 17.0505 0.970947H0V45.6863H10.4038V28.8859H14.1756C18.7048 38.2129 25.9837 46.9 34.6671 52.2623L40.6079 44.4726V44.4652ZM15.1314 20.5739H10.4038V9.52564H15.1314C19.7268 9.52564 21.5134 11.8868 21.5134 15.0204C21.5134 18.1539 19.7268 20.5813 15.1314 20.5813V20.5739Z" fill="#F1F1F1"/>
    <path d="M589.891 0.963623L575.59 43.1192L567.481 27.8561C572.716 25.6862 575.907 20.9565 575.907 15.0204C575.907 6.90705 569.841 0.970986 560.775 0.970986H543.725V45.6863H554.128V29.0771H556.746L565.238 45.6863H585.546L588.288 36.7418H602.398L605.147 45.6863H616L600.802 0.970986H589.884L589.891 0.963623ZM558.863 20.5739H554.136V9.52568H558.863C563.459 9.52568 565.245 11.8869 565.245 15.0204C565.245 18.1539 563.459 20.5813 558.863 20.5813V20.5739ZM591.038 27.5325L595.317 13.6669L599.596 27.5325H591.038Z" fill="#F1F1F1"/>
    <path d="M58.423 0.00732422C44.762 0.00732422 34.4832 9.96696 34.4832 23.3249C34.4832 36.6829 44.762 46.6425 58.423 46.6425C72.0839 46.6425 82.3627 36.6755 82.3627 23.3249C82.3627 9.97432 72.1501 0.00732422 58.423 0.00732422ZM58.423 36.9918C50.8867 36.9918 45.1444 31.1146 45.1444 23.3249C45.1444 15.5352 50.8867 9.65801 58.423 9.65801C65.9593 9.65801 71.7016 15.5352 71.7016 23.3249C71.7016 31.1146 66.0181 36.9918 58.423 36.9918Z" fill="#F1F1F1"/>
    <path d="M119.78 36.7345H133.889L136.639 45.679H147.491L132.294 0.963623H121.375L106.178 45.679H117.03L119.773 36.7345H119.78ZM126.801 13.6743L131.081 27.5398H122.522L126.801 13.6743Z" fill="#F1F1F1"/>
    <path d="M499.485 29.0698C508.551 29.0698 514.616 23.1926 514.616 15.013C514.616 6.83348 508.551 0.963623 499.485 0.963623H482.434V45.679H492.846V29.0698H499.485ZM492.846 9.52568H497.566C502.161 9.52568 503.948 11.8869 503.948 15.0204C503.948 18.1539 502.161 20.5813 497.566 20.5813H492.846V9.53304V9.52568Z" fill="#F1F1F1"/>
    <path d="M206.216 88.6213C206.48 87.1796 206.605 86.3263 206.605 84.7595C206.605 80.2431 203.267 77.4921 198.753 77.4921C194.239 77.4921 190.9 80.2431 190.9 84.7595C190.9 90.5191 196.922 91.5048 202.091 93.4687C207.392 95.4989 213.87 98.1837 213.87 106.694C213.87 115.205 207.194 120.052 198.819 120.052C190.445 120.052 183.769 115.014 183.769 106.694C183.769 104.797 184.158 103.355 184.555 102.376L190.378 102.045C189.923 103.553 189.658 104.995 189.658 106.694C189.658 111.865 193.65 114.815 198.819 114.815C203.988 114.815 207.98 111.873 207.98 106.694C207.98 100.67 201.37 99.162 196.988 97.5953C190.834 95.3665 185.011 92.7479 185.011 84.6345C185.011 76.5212 191.356 72.2622 198.753 72.2622C206.15 72.2622 212.495 76.911 212.495 84.6345C212.495 85.8776 212.296 87.3856 212.039 88.2388L206.216 88.6287V88.6213Z" fill="#F1F1F1"/>
    <path d="M230.427 119.067V78.4777H217.994V73.2405H248.75V78.4777H236.317V119.067H230.427Z" fill="#F1F1F1"/>
    <path d="M278.593 119.067C277.351 117.169 277.616 110.946 277.417 107.15C277.285 104.076 276.696 102.501 275.586 101.391C274.41 100.28 272.513 99.7578 270.087 99.7578H262.234V119.074H256.345V73.2478H271.461C276.307 73.2478 279.314 74.6233 281.542 76.8448C283.895 79.1986 285.468 82.5381 285.468 86.341C285.468 91.7106 281.674 96.9479 275.064 97.4039C279.777 97.9262 282.784 101.008 283.181 106.834L283.446 110.894C283.645 113.645 283.711 115.411 284.034 116.72C284.233 117.507 284.622 118.419 285.475 118.816V119.081H278.601L278.593 119.067ZM270.932 94.5131C274.336 94.5131 276.101 93.7261 277.343 92.4168C278.718 90.9751 279.571 88.8125 279.571 86.5248C279.571 84.2372 278.718 82.1409 277.343 80.6991C276.101 79.3898 274.336 78.4703 270.932 78.4703H262.227V94.5131H270.932Z" fill="#F1F1F1"/>
    <path d="M295.078 119.067V73.2405H320.275V78.4777H300.967V93.2112H315.04V98.4485H300.967V113.837H320.929V119.074H295.078V119.067Z" fill="#F1F1F1"/>
    <path d="M354.692 119.067L351.354 108.592H334.664L331.326 119.067H325.37L340.097 73.2405H345.987L360.714 119.067H354.692ZM344.023 85.348C343.369 83.3178 343.171 82.4645 342.979 81.5524C342.781 82.4719 342.59 83.3178 341.935 85.348L336.369 103.355H349.655L344.031 85.348H344.023Z" fill="#F1F1F1"/>
    <path d="M401.418 119.067V91.2399C401.418 89.6069 401.418 88.2314 401.484 86.6573C400.896 88.5551 400.565 89.5407 399.844 91.2399L388.264 119.721H386.955L375.375 91.2399C374.655 89.5407 374.331 88.5551 373.736 86.6573C373.802 88.2314 373.802 89.6069 373.802 91.2399V119.067H367.979V73.2405H373.868L385.713 101.979C386.632 104.208 386.955 105.054 387.676 106.952C388.396 105.054 388.72 104.201 389.639 101.979L401.352 73.2405H407.241V119.067H401.418Z" fill="#F1F1F1"/>
</g>
</svg>
